HIERARCHY
ROOT root
{
  OFFSET 0.000000 0.000000 0.000000
  CHANNELS 6 Xposition Yposition Zposition Zrotation Yrotation Xrotation
  JOINT lhipjoint
  {
    OFFSET 0.000000 0.000000 0.000000
    CHANNELS 3 Zrotation Yrotation Xrotation
    JOINT lfemur
    {
      OFFSET 0.102897 -0.089377 0.049154
      CHANNELS 3 Zrotation Yrotation Xrotation
      JOINT ltibia
      {
        OFFSET 0.137606 -0.378070 0.000000
        CHANNELS 3 Zrotation Yrotation Xrotation
        JOINT lfoot
        {
          OFFSET 0.146354 -0.402104 0.000000
          CHANNELS 3 Zrotation Yrotation Xrotation
          JOINT ltoes
          {
            OFFSET 0.008214 -0.022567 0.120317
            CHANNELS 3 Zrotation Yrotation Xrotation
            End Site
            {
              OFFSET 0.000000 -0.000000 0.061765
            }
          }
        }
      }
    }
  }
  JOINT rhipjoint
  {
    OFFSET 0.000000 0.000000 0.000000
    CHANNELS 3 Zrotation Yrotation Xrotation
    JOINT rfemur
    {
      OFFSET -0.100036 -0.089377 0.049154
      CHANNELS 3 Zrotation Yrotation Xrotation
      JOINT rtibia
      {
        OFFSET -0.141508 -0.388790 0.000000
        CHANNELS 3 Zrotation Yrotation Xrotation
        JOINT rfoot
        {
          OFFSET -0.147670 -0.405720 0.000000
          CHANNELS 3 Zrotation Yrotation Xrotation
          JOINT rtoes
          {
            OFFSET -0.008574 -0.023557 0.121905
            CHANNELS 3 Zrotation Yrotation Xrotation
            End Site
            {
              OFFSET -0.000000 -0.000000 0.062608
            }
          }
        }
      }
    }
  }
  JOINT lowerback
  {
    OFFSET 0.000000 0.000000 0.000000
    CHANNELS 3 Zrotation Yrotation Xrotation
    JOINT upperback
    {
      OFFSET -0.002033 0.119901 -0.017074
      CHANNELS 3 Zrotation Yrotation Xrotation
      JOINT thorax
      {
        OFFSET 0.001534 0.118558 0.007288
        CHANNELS 3 Zrotation Yrotation Xrotation
        JOINT lowerneck
        {
          OFFSET 0.002175 0.121761 0.016192
          CHANNELS 3 Zrotation Yrotation Xrotation
          JOINT upperneck
          {
            OFFSET -0.003596 0.106486 0.006549
            CHANNELS 3 Zrotation Yrotation Xrotation
            JOINT head
            {
              OFFSET 0.004633 0.105979 -0.006494
              CHANNELS 3 Zrotation Yrotation Xrotation
              End Site
              {
                OFFSET 0.001909 0.108988 -0.003095
              }
            }
          }
        }
        JOINT lclavicle
        {
          OFFSET 0.002175 0.121761 0.016192
          CHANNELS 3 Zrotation Yrotation Xrotation
          JOINT lhumerus
          {
            OFFSET 0.186776 0.079223 0.011377
            CHANNELS 3 Zrotation Yrotation Xrotation
            JOINT lradius
            {
              OFFSET 0.306663 -0.000000 0.000000
              CHANNELS 3 Zrotation Yrotation Xrotation
              JOINT lwrist
              {
                OFFSET 0.178328 -0.000000 0.000000
                CHANNELS 3 Zrotation Yrotation Xrotation
                End Site
                {
                  OFFSET 0.089164 -0.000000 0.000000
                }
              }
            }
          }
        }
        JOINT rclavicle
        {
          OFFSET 0.002175 0.121761 0.016192
          CHANNELS 3 Zrotation Yrotation Xrotation
          JOINT rhumerus
          {
            OFFSET -0.176641 0.090332 -0.000262
            CHANNELS 3 Zrotation Yrotation Xrotation
            JOINT rradius
            {
              OFFSET -0.301523 -0.000000 0.000000
              CHANNELS 3 Zrotation Yrotation Xrotation
              JOINT rwrist
              {
                OFFSET -0.180256 -0.000000 0.000000
                CHANNELS 3 Zrotation Yrotation Xrotation
                End Site
                {
                  OFFSET -0.090128 -0.000000 0.000000
                }
              }
            }
          }
        }
      }
    }
  }
}
MOTION
Frames: 14
Frame Time: 0.04166667
0.00000 0.79033 0.00000 -2.40314 49.83210 1.07906 0.00000 -0.00000 0.00000 -4.88812 26.18853 -37.38842 16.46128 19.69708 79.60308 2.81836 10.90122 -36.96227 1.18546 -6.90965 -19.44796 0.00000 -0.00000 0.00000 7.97390 -17.09597 -66.02048 -12.77039 -18.69769 68.41084 0.01784 5.43338 -3.22743 -0.00407 -0.41191 1.13179 -5.25090 -0.59501 16.31030 3.33878 -1.47948 -2.29471 7.09227 -0.20425 -11.53280 -14.60110 -13.59000 5.47547 12.47480 -18.96200 -0.97562 5.64181 -9.62360 1.41379 -0.00000 -0.00000 0.00000 -77.41691 13.12648 76.57696 121.14106 -55.99813 -86.60662 0.00000 -0.00000 -76.42920 -0.00000 -0.00000 0.00000 58.59915 32.55397 -0.34829 -76.00528 59.24687 -47.91087 -0.00000 -0.00000 22.22560
0.00000 0.78950 0.00000 -3.56533 50.02010 0.36842 0.00000 -0.00000 0.00000 -4.02130 24.42229 -38.28401 17.10664 19.79809 81.51297 2.57475 11.05372 -35.79210 1.19424 -6.93428 -19.52081 0.00000 -0.00000 0.00000 8.19367 -15.82892 -65.74984 -12.57291 -18.62248 67.79361 0.00797 4.33462 -2.71716 -0.01601 0.81701 -2.24544 -4.32014 -0.75799 16.75290 3.45563 -1.50285 -2.25802 6.71042 -0.26173 -11.76070 -14.41650 -13.58180 5.41481 12.83090 -18.88760 -1.78288 5.75476 -9.58736 1.19461 0.00000 0.00000 0.00000 -77.51432 13.06963 76.57924 120.98901 -56.04058 -86.48053 0.00000 -0.00000 -76.42070 0.00000 0.00000 0.00000 57.77513 32.69057 -0.74477 -74.92374 59.12350 -46.98200 -0.00000 -0.00000 21.63710
0.00000 0.78858 0.00000 -5.04052 50.08150 -0.67769 0.00000 -0.00000 0.00000 -2.31598 20.36338 -39.04220 18.24911 19.92634 84.87471 2.09622 10.44661 -32.73014 1.32520 -7.29036 -20.57849 0.00000 -0.00000 0.00000 8.07354 -13.62301 -64.90626 -12.15959 -18.45730 66.49377 -0.00176 2.35902 -1.77374 -0.08678 1.90004 -5.22950 -3.23333 -0.95779 17.33950 3.57265 -1.53335 -2.08762 6.24245 -0.33913 -11.92450 -14.14030 -13.53170 5.44816 13.36430 -18.74980 -2.71463 5.92472 -9.52845 0.92627 0.00000 -0.00000 0.00000 -77.50557 12.63102 77.11623 120.46306 -56.18527 -86.04392 0.00000 -0.00000 -76.26850 0.00000 -0.00000 0.00000 56.34551 32.80453 -1.28911 -72.66811 58.83396 -45.04891 -0.00000 -0.00000 21.47110
0.00000 0.78769 0.00000 -5.75076 49.29080 -1.42348 0.00000 -0.00000 0.00000 -1.16817 13.95939 -39.05050 19.48206 19.99357 88.48550 1.68822 9.25669 -29.38967 1.38449 -7.44507 -21.04081 0.00000 -0.00000 0.00000 7.01402 -10.51242 -63.46540 -11.40232 -18.12640 64.08132 -0.00006 -0.04227 0.13515 -0.16943 2.65175 -7.31064 -2.41725 -1.07612 18.06330 3.53548 -1.52331 -1.77947 5.74776 -0.39090 -12.01480 -13.85280 -13.36570 5.57048 13.68630 -18.46180 -3.58678 6.04941 -9.39708 0.61906 -0.00000 -0.00000 0.00000 -77.49404 11.99560 77.58095 119.25827 -56.50436 -85.04105 0.00000 -0.00000 -75.27690 -0.00000 -0.00000 0.00000 54.56274 32.93489 -1.10109 -68.87549 58.24483 -41.81345 -0.00000 -0.00000 20.29810
0.00000 0.78919 0.00000 -5.61385 47.23230 -1.61691 0.00000 -0.00000 0.00000 -2.25738 6.06415 -38.12122 20.18551 19.99917 90.54241 1.48195 8.87358 -27.72313 1.42081 -7.53800 -21.31938 0.00000 -0.00000 0.00000 5.05271 -6.47018 -61.17080 -9.97751 -17.39718 59.41317 -0.03711 -2.45325 3.58520 -0.19951 2.87622 -7.93432 -1.62824 -1.19339 18.66440 3.46402 -1.51237 -1.41743 5.22128 -0.44578 -11.97150 -13.49280 -12.84360 5.53904 13.35600 -17.69400 -4.14630 5.98463 -9.00863 0.29274 0.00000 0.00000 0.00000 -77.94892 10.62761 77.38787 116.59693 -57.15060 -82.81328 0.00000 -0.00000 -73.79490 0.00000 0.00000 0.00000 52.67425 33.21753 0.23397 -63.69366 57.21645 -37.43094 -0.00000 -0.00000 19.12200
0.00000 0.79543 0.00000 -4.06347 43.48520 -0.89194 0.00000 -0.00000 0.00000 -6.96418 -1.95930 -35.53505 19.84786 19.99945 89.55517 1.10239 11.92178 -27.41478 1.69021 -8.18859 -23.28836 0.00000 -0.00000 0.00000 1.74408 -0.93833 -57.34223 -7.64369 -15.85082 51.26887 -0.22383 -5.90515 8.78465 -0.09512 1.98907 -5.47544 -1.63144 -1.26210 19.21380 3.28240 -1.63030 -0.94397 5.05687 -0.52026 -11.74070 -12.85400 -11.86710 5.11479 12.64590 -16.28480 -4.33152 5.75700 -8.28269 0.00474 -0.00000 0.00000 0.00000 -79.28779 7.79613 76.08018 110.95161 -58.27458 -78.03951 0.00000 -0.00000 -71.90710 -0.00000 0.00000 0.00000 51.70518 34.11553 2.44324 -57.63051 55.64475 -32.37710 -0.00000 -0.00000 19.56470
0.00000 0.80490 0.00000 -1.28572 37.56480 0.35541 0.00000 -0.00000 0.00000 -14.56746 -8.54713 -31.35999 18.57562 19.95129 85.83216 0.57406 16.29212 -27.90468 2.10354 -9.07850 -26.04119 0.00000 -0.00000 0.00000 -2.68128 6.57594 -52.08521 -4.80500 -13.16078 39.97334 -0.36035 -8.59958 11.46202 -0.09950 2.03418 -5.60011 -3.12001 -0.89388 20.00880 2.92983 -1.54254 -0.26778 5.50307 -0.42282 -11.40520 -11.84830 -10.54880 4.19287 11.85580 -14.35910 -4.42141 5.42319 -7.28964 -0.25058 -0.00000 0.00000 0.00000 -81.51611 3.05163 73.92145 100.30167 -59.59517 -68.90938 0.00000 -0.00000 -71.90720 -0.00000 0.00000 0.00000 52.07701 34.43702 5.63708 -53.22544 54.21634 -28.77088 -0.00000 -0.00000 19.40320
0.00000 0.81358 0.00000 0.12754 29.25440 1.66192 0.00000 -0.00000 0.00000 -20.61146 -12.06636 -29.48054 16.99898 19.78269 81.19499 0.08549 20.34485 -29.36671 2.21318 -9.29668 -26.72785 0.00000 -0.00000 0.00000 -3.79421 13.08102 -50.63487 -2.95596 -10.62341 31.02007 0.04939 -4.67802 0.98243 -0.22177 3.03146 -8.36635 -4.27071 -0.14017 20.64620 2.70710 -0.86763 -0.10181 5.74207 -0.04305 -11.64450 -10.63550 -8.78529 3.04866 10.76580 -11.82860 -4.62953 4.95837 -5.98817 -0.56840 0.00000 -0.00000 0.00000 -84.11145 -2.34775 71.42598 87.52476 -59.97684 -57.85654 0.00000 -0.00000 -74.10040 0.00000 -0.00000 0.00000 53.46846 34.15895 10.07895 -49.21614 52.67442 -25.54949 -0.00000 -0.00000 18.43960
0.00000 0.81760 0.00000 -0.83342 19.78680 2.32190 0.00000 -0.00000 0.00000 -22.59245 -12.14461 -31.72302 15.94608 19.60133 78.07104 -0.14870 23.36169 -31.95878 1.46749 -7.65549 -21.67248 0.00000 -0.00000 0.00000 5.33504 11.49793 -55.01370 -3.06329 -10.79681 31.59763 -0.12878 -4.83194 -10.24029 -0.11253 2.16284 -5.95590 -4.10025 0.44176 21.49590 2.79564 -0.07877 -0.07560 5.52974 0.33520 -12.19860 -9.18059 -6.45575 1.85693 9.34425 -8.56188 -5.02741 4.33972 -4.32054 -0.97307 0.00000 -0.00000 0.00000 -87.09459 -8.42471 69.03130 78.82237 -59.52260 -50.33541 0.00000 -0.00000 -75.21640 0.00000 -0.00000 0.00000 56.29506 35.41268 15.92642 -44.08298 50.31124 -21.53075 -0.00000 -0.00000 16.70830
0.00000 0.81662 0.00000 -2.00754 10.75610 2.86308 0.00000 -0.00000 0.00000 -22.71155 -9.12133 -37.48771 15.73309 19.55777 77.43547 0.19703 23.83387 -34.70388 0.39805 -4.05081 -11.21965 0.00000 -0.00000 0.00000 13.31144 11.29996 -60.67416 -5.79418 -14.22588 44.15002 0.19340 -11.51754 -13.26589 -0.01788 0.86334 -2.37286 -4.05809 1.04001 22.58580 2.58211 0.65272 0.25727 5.04173 0.66239 -12.51800 -7.55472 -4.16259 0.79542 7.81468 -5.40662 -5.39566 3.97135 -2.71111 -1.42396 0.00000 0.00000 0.00000 -90.63265 -18.42465 71.81174 82.13325 -59.76486 -53.19258 0.00000 -0.00000 -73.31810 0.00000 0.00000 0.00000 60.45045 37.72785 22.85995 -39.56962 47.81283 -18.11969 -0.00000 -0.00000 16.19740
0.00000 0.81142 0.00000 -2.57419 3.22522 3.73009 0.00000 -0.00000 0.00000 -22.50387 -4.55527 -45.57336 16.28882 19.66653 79.09103 0.45880 22.54652 -34.57371 0.05754 -1.54790 -4.25776 0.00000 -0.00000 0.00000 14.21434 15.09202 -64.73278 -12.01073 -18.39518 66.02282 -0.10906 -8.40668 -13.90703 -0.11925 2.22630 -6.13148 -4.77076 1.43859 23.28430 2.08848 0.88916 0.44673 4.81773 0.79333 -12.72160 -6.12379 -2.03955 0.13024 6.90185 -2.51315 -5.71735 3.36260 -1.26546 -1.67695 0.00000 -0.00000 0.00000 -97.65635 -33.39644 86.01157 104.02589 -59.24345 -72.11592 0.00000 -0.00000 -65.74230 0.00000 -0.00000 0.00000 65.55785 40.24466 32.17095 -36.37448 45.76902 -15.79023 -0.00000 -0.00000 16.98120
0.00000 0.80476 0.00000 -4.04263 -1.77460 4.63019 0.00000 -0.00000 0.00000 -21.09370 -0.67012 -53.25478 16.88607 19.76591 80.86126 0.47306 20.85451 -32.58959 0.00888 -0.60841 -1.67188 0.00000 -0.00000 0.00000 15.82827 15.36287 -63.12861 -19.02872 -19.97737 87.15913 -0.28776 -9.25567 -17.37377 -0.09715 2.01004 -5.53340 -4.62040 0.94782 23.51210 2.08709 0.26695 0.37842 4.94517 0.50156 -12.84990 -5.04875 0.08375 -0.55240 6.08148 0.33065 -5.29464 2.83706 0.15878 -1.60870 0.00000 -0.00000 0.00000 -115.38957 -49.58895 114.25445 126.66947 -54.25352 -91.14385 0.00000 -0.00000 -47.91250 0.00000 -0.00000 0.00000 72.10578 42.73435 45.20865 -34.25813 44.27507 -14.29296 -0.00000 -0.00000 17.48140
0.00000 0.80779 0.00000 -5.38847 -5.84397 6.36321 0.00000 -0.00000 0.00000 -19.89828 1.90106 -59.61237 16.57604 19.71657 79.94342 0.11646 19.78196 -28.83586 0.00000 -0.01265 -0.03475 0.00000 -0.00000 0.00000 17.22993 11.22009 -53.94970 -22.71109 -19.82286 97.94920 0.19414 -16.13468 -20.88173 -0.00006 0.05189 -0.14256 -4.47578 0.53615 22.63100 2.23274 -0.18837 -0.18718 5.17485 0.30470 -12.95690 -4.71467 1.64535 -1.53085 5.81540 2.41217 -4.20940 2.65786 1.21417 -1.20400 -0.00000 0.00000 0.00000 -144.94124 -57.08996 154.44431 137.62507 -49.41568 -99.77516 0.00000 -0.00000 -22.56120 -0.00000 0.00000 0.00000 78.53748 44.05899 59.93974 -33.63923 43.81565 -13.86268 -0.00000 -0.00000 17.66530
0.00000 0.81455 0.00000 -6.05986 -11.20300 8.01704 0.00000 -0.00000 0.00000 -19.23819 4.83487 -64.24310 15.79848 19.57139 77.63074 -0.28596 19.41480 -25.07791 0.01141 0.68983 1.89573 0.00000 -0.00000 0.00000 15.07444 7.00360 -39.57778 -22.50424 -19.84897 97.33963 0.44637 -18.16650 -21.44807 -0.17143 -2.66722 7.35361 -5.34421 1.04252 21.17940 2.31683 0.32581 -1.01296 5.59479 0.63181 -13.16700 -5.20299 2.68221 -2.59847 6.04402 3.80078 -2.77868 2.83225 1.93303 -0.66020 -0.00000 -0.00000 0.00000 -167.54283 -56.96876 -175.85402 139.72284 -48.23325 -101.35430 0.00000 -0.00000 -0.99429 -0.00000 -0.00000 0.00000 83.94485 44.48127 75.59679 -34.69954 44.59639 -14.60200 -0.00000 -0.00000 14.19100
